<?xml version="1.0" encoding="UTF-8"?><svg xmlns="http://www.w3.org/2000/svg" viewBox="0 0 54.85 51.45"><defs><style>.d{fill:#e99823;}</style></defs><g id="a"/><g id="b"><g id="c"><g><g><path class="d" d="M48.33,38.28v.03h-.51c.17,0,.34-.01,.51-.03Z"/><path class="d" d="M13.9,48.45h0c0,1.66-1.34,3-3,3H.73c0-1.66,1.34-3,3-3h.37c.73,0,1.39-.41,1.72-1.06l3.08-6.08-6.02,.03C1.29,41.34,0,40.05,0,38.45H4.5V20.13H0c0-1.59,1.29-2.88,2.88-2.88H12.89v.82c0,1.14-1.92,2.06-3.06,2.06h0l2.24,2.61c.96,.96,1.2,3.06,.59,4.28l-.34,.68-4.75-5.96-.18,14.62c0,1.15,.93,2.09,2.09,2.09l4.12-.03-1.46,2.89-3.61,7.14h5.37Z"/><polygon class="d" points="26.16 41.31 26.15 41.32 26.14 41.31 26.16 41.31"/><path class="d" d="M47.82,17.2h-13.21c-.95,0-1.81-.53-2.24-1.37l-.81-1.61-1.28-2.53-.81-1.59h1.44c1.64,0,2.98-1.33,2.98-2.98h-13.74c0,.82,.33,1.57,.87,2.11,.54,.54,1.29,.87,2.11,.87h1.47l-.8,1.59-1.27,2.53h1.17c1.27,0,2.43-.71,3-1.85l.34-.67,1.28,2.52,.34,.68,1.17,2.3v.02h-7.31c-.92,0-1.77,.52-2.18,1.34l-.17,.35-.02,.04-.63,1.25-1.5,2.98-1.98,3.95-1.36,2.72-2.86,5.68h1.31c1.18,0,2.25-.66,2.78-1.71l.92-1.82,6.31,6.31h-4.4c-1.66,0-3,1.34-3,3h23.09l-.8-1.56c-.44-.88-1.35-1.44-2.33-1.44h-7.1V21.7c0-.83,.67-1.5,1.5-1.5h17.72c2.21,0,4.03,1.81,4.03,4.03v10.04c0,2.06-1.54,3.75-3.52,4.01v.03h-1.32l.63,1.25c.58,1.14,1.97,1.63,3.13,1.1,2.4-1.12,4.08-3.56,4.08-6.39v-10.04c0-3.88-3.15-7.03-7.03-7.03Zm-28.31,13.4c-.79-.79-.99-1.99-.48-2.99l2.23-4.43,1.5-2.98h2.84v16.49l-6.09-6.09Z"/><path class="d" d="M53.97,51.45h-10.74c-1.66,0-3-1.34-3-3h5.46l-2.1-4.14-1.52-3h-.01l-1.52-3-1.52-3-6.15-12.13h1.66c.97,0,1.86,.55,2.3,1.41l5.43,10.72,1.52,3,1.52,3h.01l1.52,3,1.59,3.13c.32,.62,.95,1.01,1.65,1.01h.9c1.66,0,3,1.34,3,3Z"/><path class="d" d="M47.82,38.31h.51v-.03c-.17,.02-.34,.03-.51,.03Z"/></g><path class="d" d="M18.93,48.45h16.18c1.66,0,3,1.34,3,3H15.93c0-1.66,1.34-3,3-3Z"/></g><polygon class="d" points="27.02 0 24.62 4.16 29.41 4.16 27.02 0"/><polygon class="d" points="5.99 10 3.48 14.35 8.51 14.35 5.99 10"/><polygon class="d" points="48.38 10 45.87 14.35 50.89 14.35 48.38 10"/></g></g></svg>